<!DOCTYPE svg PUBLIC "-//W3C//DTD SVG 20010904//EN" "http://www.w3.org/TR/2001/REC-SVG-20010904/DTD/svg10.dtd">
<svg version="1.0" xmlns="http://www.w3.org/2000/svg" width="241px" height="131px" viewBox="0 0 2410 1310" preserveAspectRatio="xMidYMid meet">
<g id="layer101" fill="#0061d5" stroke="none">
 <path d="M259 1278 c-123 -61 -221 -189 -249 -323 -7 -33 -10 -203 -8 -474 l3 -423 28 -24 c38 -33 96 -33 134 0 l28 24 3 205 3 205 65 -30 c199 -93 428 -39 564 134 l39 48 32 -45 c95 -132 283 -206 446 -176 151 27 271 119 340 257 38 78 38 78 38 203 0 121 -1 129 -32 194 -44 92 -127 178 -216 222 -69 35 -70 35 -207 35 -137 0 -137 0 -208 -35 -52 -26 -88 -55 -136 -106 l-64 -69 -22 35 c-31 51 -105 112 -176 145 -59 29 -67 30 -201 30 -137 0 -141 -1 -204 -32z m318 -180 c56 -26 118 -98 139 -160 32 -99 4 -199 -79 -275 -134 -123 -336 -77 -415 96 -43 95 -18 215 60 287 53 49 67 57 116 70 57 16 122 10 179 -18z m810 -4 c158 -77 194 -279 74 -416 -73 -83 -206 -107 -307 -55 -94 48 -143 130 -144 238 0 118 67 210 182 251 65 23 123 18 195 -18z"/>
 <path d="M1672 1287 c-28 -29 -38 -78 -22 -107 7 -13 66 -90 132 -171 84 -103 117 -152 111 -161 -4 -8 -61 -79 -125 -159 -64 -79 -120 -157 -123 -172 -23 -90 99 -155 174 -92 16 14 71 77 121 140 51 63 95 115 100 115 4 0 54 -56 109 -125 56 -68 111 -131 123 -140 27 -18 77 -20 113 -3 23 11 25 16 25 85 l0 75 -107 131 c-58 73 -110 137 -116 144 -6 9 26 56 107 156 l116 144 0 69 c0 41 -5 75 -12 82 -7 7 -36 12 -64 12 -64 0 -70 -5 -194 -160 -51 -63 -95 -116 -99 -117 -3 -1 -56 60 -116 135 l-111 137 -60 3 c-52 2 -63 0 -82 -21z"/>
 </g>

</svg>